 <svg  version="1.0" xmlns="http://www.w3.org/2000/svg"  width="300.000000pt" height="302.000000pt" viewBox="0 0 300.000000 302.000000"  preserveAspectRatio="xMidYMid meet">  <g transform="translate(0.000000,302.000000) scale(0.100000,-0.100000)" fill="#a507ed" stroke="none"> <path d="M1369 2931 c-19 -4 -84 -27 -144 -51 -86 -34 -119 -54 -152 -87 -84 -87 -96 -216 -31 -342 19 -36 40 -65 47 -63 7 1 10 -2 6 -8 -3 -5 5 -25 18 -42 49 -66 87 -146 123 -263 29 -95 37 -138 38 -206 1 -75 -2 -90 -24 -121 -32 -48 -59 -62 -164 -87 -173 -41 -272 -121 -348 -280 -36 -77 -91 -161 -110 -169 -11 -5 -65 -94 -73 -120 -4 -13 0 -35 8 -52 8 -16 18 -49 22 -72 10 -61 47 -129 92 -169 31 -28 55 -39 119 -53 44 -9 93 -26 109 -36 17 -11 45 -29 62 -41 39 -25 103 -123 103 -158 0 -17 3 -22 10 -15 11 11 -11 97 -40 155 -22 43 -90 106 -134 124 -17 7 -58 18 -91 25 -69 14 -106 31 -136 63 -22 23 -59 99 -59 122 0 7 18 31 41 53 45 46 46 70 6 107 l-22 19 45 46 c25 25 68 85 95 134 84 151 162 215 306 251 145 36 249 100 249 155 0 10 5 22 10 25 18 11 11 -28 -15 -83 -21 -46 -22 -51 -6 -42 27 14 51 82 51 142 0 104 -73 464 -114 563 -22 52 -86 290 -86 319 0 15 -4 25 -9 21 -18 -10 -23 -92 -11 -161 6 -38 13 -84 16 -103 4 -37 32 -120 46 -136 5 -6 8 4 6 23 -1 17 -5 32 -9 32 -9 0 -29 73 -29 109 0 17 5 31 12 31 6 0 9 -3 5 -6 -3 -3 1 -25 10 -47 8 -23 16 -49 18 -57 2 -8 4 -17 5 -20 1 -3 2 -8 1 -12 0 -5 3 -8 9 -8 5 0 10 -11 10 -24 0 -14 4 -27 9 -30 5 -3 7 -16 3 -28 -3 -14 -1 -19 6 -14 7 4 10 -2 9 -14 -1 -19 -4 -18 -29 12 l-28 33 29 -65 c49 -112 69 -200 73 -322 1 -38 5 -68 9 -68 11 0 -2 -38 -18 -52 -13 -10 -14 -4 -9 45 13 115 -32 281 -133 493 -83 172 -95 213 -88 294 3 37 13 85 22 106 9 22 15 39 13 39 -2 0 16 18 39 39 39 35 151 91 162 80 2 -2 -3 -12 -12 -22 -53 -59 -62 -176 -20 -287 14 -38 28 -90 31 -115 3 -31 7 -39 11 -27 9 26 86 -205 100 -298 5 -38 13 -129 17 -201 8 -151 0 -188 -51 -232 -47 -42 -159 -92 -232 -105 -35 -5 -63 -14 -63 -20 0 -5 -10 -7 -21 -4 -13 4 -18 2 -13 -3 5 -5 42 -4 87 2 43 6 73 14 66 18 -6 4 11 11 37 15 107 16 188 64 223 133 8 16 11 96 10 265 -2 223 -1 249 20 326 12 46 31 101 42 122 10 21 16 44 13 52 -10 27 98 167 129 167 6 0 -11 -24 -39 -52 -52 -54 -84 -96 -84 -111 0 -4 13 7 29 25 16 18 80 68 143 110 132 89 201 115 447 168 85 19 149 36 144 37 -6 2 -80 -8 -164 -22 -85 -15 -170 -29 -189 -31 -19 -3 -44 -6 -55 -8 -40 -6 -141 -39 -200 -65 -66 -30 -139 -97 -178 -163 -27 -47 -87 -228 -88 -268 0 -23 -1 -23 -9 -5 -5 11 -41 94 -81 185 -85 196 -96 258 -59 334 25 52 87 110 137 128 18 7 33 16 33 20 0 9 -70 9 -121 -1z m-251 -158 c-35 -38 -49 -68 -64 -133 -11 -50 -12 -52 -13 -19 -1 20 6 56 14 80 16 43 60 99 79 99 5 0 -2 -12 -16 -27z m-46 -248 c3 -14 1 -28 -3 -31 -5 -3 -9 1 -9 10 0 8 -3 21 -6 30 -3 9 -2 16 4 16 5 0 12 -11 14 -25z m-426 -1410 c6 -26 -17 -75 -36 -75 -13 0 -13 56 0 81 15 26 28 24 36 -6z"/> <path d="M2430 2910 c-25 -5 -135 -22 -245 -40 -297 -46 -353 -57 -409 -84 -63 -29 -131 -79 -146 -105 -9 -18 -4 -17 37 8 27 16 80 39 118 51 39 12 90 29 115 38 24 8 69 16 100 17 30 1 117 12 194 24 76 13 149 21 162 18 13 -2 21 0 18 4 -3 5 6 9 20 9 13 0 36 4 50 10 37 14 32 -1 -9 -27 -54 -35 -63 -58 -75 -188 -15 -164 -34 -262 -74 -385 -70 -215 -171 -393 -291 -511 -63 -62 -188 -150 -275 -194 -66 -33 -222 -81 -325 -101 -49 -9 -92 -19 -95 -22 -6 -5 49 1 195 22 55 9 120 15 145 15 l45 0 -34 -12 c-52 -18 -47 -32 18 -50 72 -20 117 -57 155 -127 34 -63 26 -77 -15 -27 -17 20 -37 37 -45 37 -19 0 -19 -1 20 -78 18 -37 42 -93 52 -125 14 -44 28 -66 56 -89 35 -27 57 -26 23 2 -18 15 -50 101 -60 160 -9 60 6 45 46 -46 l30 -69 -5 50 c-9 72 -52 195 -88 250 -17 26 -49 59 -71 73 l-41 27 32 3 c18 2 69 -6 114 -17 105 -27 116 -26 49 5 -69 31 -158 54 -209 54 -65 0 -57 15 21 39 195 62 340 181 464 379 115 184 210 496 239 785 9 90 44 138 134 185 36 19 67 36 69 38 7 7 -162 2 -209 -6z"/> <path d="M2281 2708 c-11 -26 -21 -81 -25 -140 -10 -150 -48 -320 -102 -452 -5 -14 -4 -17 5 -12 16 10 68 128 93 211 16 53 21 101 22 195 1 69 6 134 12 145 12 22 26 95 18 95 -3 0 -13 -19 -23 -42z"/> <path d="M2110 2626 c-285 -120 -453 -288 -510 -510 -20 -81 -50 -320 -50 -406 0 -28 -5 -60 -10 -71 -13 -23 -7 -24 71 -9 65 12 126 43 239 121 86 59 184 149 162 149 -7 0 -12 -4 -12 -10 0 -5 -35 -35 -77 -67 -43 -31 -89 -67 -103 -79 -42 -36 -157 -92 -205 -99 -53 -8 -61 7 -12 23 l32 12 -34 -5 -33 -5 5 83 c14 191 20 247 30 247 5 0 6 -12 3 -27 -5 -21 -4 -24 4 -13 13 19 13 63 0 55 -14 -9 -13 -2 15 104 14 51 34 106 45 121 11 16 20 32 20 38 0 32 212 222 290 260 14 6 32 16 40 21 29 18 124 61 135 61 22 0 37 -46 30 -91 -13 -85 -56 -274 -65 -291 -6 -10 -10 -25 -10 -33 0 -9 -12 -39 -26 -68 -80 -159 -142 -236 -240 -300 -27 -18 -50 -41 -53 -52 -4 -23 -40 -57 -52 -49 -5 3 -9 1 -9 -5 0 -5 -9 -13 -21 -16 -11 -4 -19 -9 -16 -11 2 -2 27 5 55 17 45 19 52 25 52 49 0 23 9 33 47 56 98 57 188 166 255 310 46 98 100 323 102 424 1 100 -4 104 -94 66z"/> <path d="M1111 2588 c-1 -44 25 -135 36 -124 3 2 -1 15 -8 28 -7 12 -16 50 -19 83 -7 59 -7 60 -9 13z"/> <path d="M1942 2609 c-24 -11 -42 -23 -39 -25 5 -5 87 35 87 42 0 6 0 6 -48 -17z"/> <path d="M1764 2478 c-68 -71 -99 -108 -92 -108 2 0 41 38 85 85 44 47 78 85 74 85 -4 0 -34 -28 -67 -62z"/> <path d="M1621 2483 c-17 -21 -31 -42 -31 -48 0 -10 43 37 60 68 18 29 3 19 -29 -20z"/> <path d="M1261 2486 c-2 -20 83 -309 87 -297 7 20 -18 130 -45 201 -34 89 -42 106 -42 96z"/> <path d="M1590 2237 c-11 -25 -22 -60 -25 -79 -4 -23 1 -17 15 22 11 30 24 63 30 73 6 11 9 21 6 25 -3 3 -15 -15 -26 -41z"/> <path d="M2050 1955 c-17 -25 -27 -45 -23 -45 5 0 20 20 35 45 15 25 26 45 23 45 -2 0 -18 -20 -35 -45z"/> <path d="M1717 1963 c-4 -3 -28 -12 -54 -19 l-48 -13 36 0 c23 -1 46 7 60 19 13 10 21 19 18 20 -3 0 -9 -3 -12 -7z"/> <path d="M1611 1854 c-13 -19 -21 -37 -18 -41 4 -3 10 3 13 13 4 10 14 27 22 37 8 9 13 19 11 21 -2 3 -15 -11 -28 -30z"/> <path d="M1919 1744 c-13 -14 -59 -44 -101 -65 -122 -62 -214 -88 -338 -98 -61 -5 -114 -12 -118 -16 -4 -4 61 -5 143 -3 l150 3 84 43 c113 57 225 141 209 157 -2 3 -15 -7 -29 -21z"/> <path d="M1610 1745 c-14 -8 -20 -14 -15 -14 6 0 21 6 35 14 14 8 21 14 15 14 -5 0 -21 -6 -35 -14z"/> <path d="M995 1512 c-51 -39 -90 -88 -125 -159 -12 -23 -34 -58 -51 -79 -38 -47 -37 -51 5 -19 24 18 33 32 29 43 -3 9 -2 14 2 10 5 -5 24 21 44 57 39 69 124 165 147 165 8 0 14 5 14 10 0 17 -13 11 -65 -28z"/> <path d="M1139 1508 c-59 -10 -64 -22 -5 -14 27 3 106 7 175 8 136 1 124 6 -31 10 -53 2 -116 0 -139 -4z"/> <path d="M1279 1455 c-14 -8 -61 -17 -105 -21 -125 -11 -194 -58 -194 -132 0 -27 -8 -45 -34 -72 -32 -33 -56 -80 -41 -80 4 0 15 10 25 22 16 21 27 23 113 23 91 0 97 1 133 31 49 39 135 68 177 60 23 -4 28 -3 17 4 -22 14 -86 12 -128 -5 -32 -13 -35 -13 -18 0 34 26 11 26 -25 0 -19 -13 -45 -32 -58 -42 -16 -11 -46 -18 -90 -20 -47 -2 -59 0 -41 6 14 5 41 9 60 10 70 2 129 62 115 118 -4 19 2 26 42 47 53 28 104 66 88 65 -5 0 -22 -6 -36 -14z m-134 -74 c3 -5 -2 -16 -10 -25 -13 -12 -21 -13 -40 -4 -32 14 -51 -1 -67 -53 -6 -22 -15 -39 -20 -39 -24 0 11 80 48 108 30 22 78 29 89 13z m-6 -77 c10 -8 -14 -24 -45 -30 -43 -8 -53 0 -29 26 13 14 25 18 44 13 14 -3 28 -7 30 -9z"/> <path d="M1510 1429 c0 -5 11 -9 25 -9 14 0 25 2 25 4 0 2 -11 6 -25 8 -14 3 -25 1 -25 -3z"/> <path d="M1293 1393 c15 -2 37 -2 50 0 12 2 0 4 -28 4 -27 0 -38 -2 -22 -4z"/> <path d="M1688 1341 c15 -28 28 -46 30 -41 4 12 -23 63 -42 79 -8 7 -2 -10 12 -38z"/> <path d="M1315 1369 c-92 -13 -98 -19 -15 -14 41 2 86 8 100 14 l25 10 -25 -1 c-14 0 -52 -4 -85 -9z"/> <path d="M1415 1345 c-58 -15 -23 -20 39 -5 37 8 42 7 72 -26 18 -18 42 -59 53 -89 33 -87 58 -132 75 -132 9 0 16 1 16 2 0 11 -54 95 -61 95 -5 0 -12 12 -15 28 -8 31 -65 122 -77 122 -4 0 -5 5 -2 10 8 13 -38 11 -100 -5z"/> <path d="M1635 1273 c8 -16 25 -56 38 -89 13 -34 55 -104 93 -157 53 -73 82 -103 124 -128 30 -18 79 -57 108 -86 29 -29 57 -53 61 -53 18 0 61 -47 61 -68 0 -12 2 -22 4 -22 2 0 40 -9 86 -21 93 -23 121 -21 71 5 -59 31 -172 116 -307 232 -131 112 -218 213 -256 297 -24 52 -55 95 -78 107 -18 10 -18 9 -5 -17z"/> <path d="M774 1253 c-15 -20 -23 -33 -16 -29 13 8 56 66 49 66 -3 0 -17 -17 -33 -37z"/> <path d="M1245 1240 c-17 -7 -16 -9 11 -9 17 -1 45 -6 63 -12 39 -14 55 -4 17 11 -44 17 -70 19 -91 10z"/> <path d="M850 1141 c-21 -41 -24 -115 -5 -152 20 -39 167 -194 267 -281 37 -33 65 -65 62 -71 -3 -8 10 -18 31 -26 53 -19 104 -68 130 -125 14 -31 24 -43 24 -31 1 32 -37 106 -80 157 -32 38 -36 48 -22 48 77 0 154 -66 204 -173 32 -71 39 -54 9 26 -11 30 -42 78 -72 112 -29 32 -45 56 -36 53 9 -4 36 -12 60 -18 33 -9 59 -28 111 -81 37 -38 67 -66 67 -61 0 16 -56 86 -107 134 -52 48 -60 51 -178 64 -37 4 -53 9 -42 13 13 5 5 10 -29 19 -67 18 -66 7 2 -25 48 -22 55 -28 39 -34 -42 -16 -82 -8 -139 26 -32 19 -62 35 -67 35 -14 0 -89 106 -89 125 0 16 7 13 37 -16 47 -42 18 -4 -49 67 -50 51 -69 103 -53 141 4 10 9 27 10 37 2 17 0 17 -17 -3 -12 -16 -18 -40 -18 -74 0 -45 5 -56 41 -99 44 -53 35 -63 -18 -22 -68 52 -86 111 -63 209 10 46 7 56 -10 26z"/> <path d="M964 1135 c-24 -18 -7 -19 26 0 16 9 19 14 9 15 -8 0 -24 -7 -35 -15z"/> <path d="M1166 1141 l-28 -6 46 -22 c26 -13 62 -23 80 -23 24 0 46 -10 76 -35 54 -45 66 -45 18 0 -36 34 -46 38 -120 50 -21 3 -38 10 -38 14 0 16 36 18 85 5 28 -8 70 -16 95 -19 30 -3 16 3 -45 19 -93 25 -120 28 -169 17z"/> <path d="M1048 1111 c-14 -22 -34 -30 -22 -8 5 9 4 9 -6 0 -21 -19 -24 -96 -5 -132 19 -38 31 -36 14 2 -14 30 3 108 29 133 8 8 12 17 9 20 -3 3 -12 -3 -19 -15z"/> <path d="M1454 1086 c23 -19 116 -39 139 -30 33 12 16 22 -54 28 -39 4 -78 10 -88 13 -13 4 -12 2 3 -11z"/> <path d="M1643 1049 c4 -14 -1 -22 -16 -28 -16 -6 -9 -9 33 -13 51 -5 66 0 59 19 -2 5 -21 16 -42 26 -39 17 -39 17 -34 -4z"/> <path d="M781 1029 c-1 -14 10 -47 24 -73 32 -61 32 -76 -2 -77 -27 -2 -28 -2 -3 -6 14 -3 34 -13 45 -24 12 -10 36 -24 55 -30 19 -7 49 -22 65 -34 65 -47 56 -33 -48 70 -64 64 -109 118 -113 134 -3 14 -9 35 -14 46 -8 18 -9 18 -9 -6z"/> <path d="M950 1009 c1 -20 20 -52 55 -91 17 -18 42 -48 58 -66 15 -19 27 -28 27 -22 0 6 23 -5 50 -25 83 -61 45 -11 -48 62 -47 37 -98 88 -114 112 -15 25 -28 38 -28 30z"/> <path d="M1060 1008 c1 -41 18 -62 94 -114 87 -61 139 -87 116 -59 -11 13 -7 15 31 15 68 0 80 16 17 24 -69 9 -145 46 -207 102 -28 25 -51 40 -51 32z"/> <path d="M1406 1012 c-8 -13 84 -59 150 -76 34 -9 88 -15 120 -14 58 2 58 2 11 5 -26 2 -45 8 -42 14 6 8 -34 15 -60 9 -5 -1 -7 2 -2 6 4 4 29 10 55 12 84 7 82 21 -3 20 -44 0 -109 7 -145 16 -76 18 -77 18 -84 8z"/> <path d="M655 990 c9 -14 64 -42 76 -38 6 2 -11 14 -36 26 -26 12 -44 18 -40 12z"/> <path d="M1233 949 c10 -6 41 -13 70 -16 49 -5 53 -8 69 -43 23 -55 49 -68 158 -76 73 -5 105 -12 136 -30 42 -24 105 -92 125 -138 7 -14 16 -26 21 -26 18 0 -33 79 -82 126 -51 48 -51 49 -26 57 14 5 40 4 60 -2 45 -12 47 3 4 26 -26 14 -60 18 -154 19 -126 2 -171 14 -193 51 -9 16 -10 16 -11 -5 0 -15 11 -29 33 -42 17 -11 27 -20 20 -20 -20 0 -80 59 -87 85 -6 25 -15 28 -116 39 -34 3 -40 2 -27 -5z"/> <path d="M1419 936 c39 -47 134 -72 289 -75 102 -2 150 -13 203 -47 42 -26 53 -50 19 -39 -24 8 -82 -3 -76 -14 3 -4 30 -13 60 -20 36 -8 76 -27 114 -55 62 -46 122 -112 122 -134 0 -7 -12 1 -26 18 -33 39 -122 86 -137 71 -7 -7 -2 -19 15 -40 51 -59 135 -348 110 -373 -9 -9 -12 -5 -12 18 0 17 -6 39 -14 49 -13 18 -14 15 -9 -25 3 -25 0 -71 -6 -104 -11 -61 -48 -146 -63 -146 -5 0 -6 -5 -3 -10 3 -6 15 -10 26 -10 23 0 67 90 76 158 9 65 17 41 23 -66 l5 -97 20 60 c16 48 20 87 20 195 0 131 -1 137 -33 204 -18 38 -31 71 -28 73 2 2 16 -11 31 -29 41 -48 85 -148 87 -196 2 -64 18 -50 18 16 -1 66 -13 130 -37 187 -28 66 -95 163 -117 169 -27 8 -64 39 -68 57 -2 8 -14 25 -28 38 -14 13 -47 44 -74 70 l-49 46 -186 5 c-183 5 -187 5 -236 34 -32 19 -45 23 -36 12z m671 -371 c10 -12 10 -19 2 -27 -14 -14 -17 -11 -26 20 -8 25 5 29 24 7z"/> <path d="M710 927 c0 -3 15 -10 32 -16 18 -6 28 -7 23 -2 -12 10 -55 25 -55 18z"/> <path d="M1150 846 c0 -3 25 -22 56 -42 51 -34 64 -38 152 -45 217 -18 258 -39 292 -144 13 -41 30 -68 30 -48 0 6 -9 40 -20 75 -33 107 -82 138 -220 138 -91 0 -200 22 -247 50 -35 20 -43 23 -43 16z"/> <path d="M1807 703 c24 -25 51 -59 59 -75 21 -41 29 -28 10 17 -15 36 -56 95 -56 80 0 -4 -6 -3 -12 2 -39 30 -40 15 -1 -24z"/> <path d="M881 633 c-24 -26 -51 -64 -61 -83 -45 -89 -50 -230 -10 -347 61 -184 68 -198 94 -201 14 -2 26 0 26 3 0 4 -9 53 -21 108 -11 56 -20 129 -20 161 1 76 26 153 52 161 14 5 18 12 14 26 -8 24 16 59 58 82 l32 18 -30 -6 c-33 -6 -85 -59 -85 -86 0 -9 -6 -22 -14 -28 -16 -13 -36 -93 -36 -144 0 -24 -3 -28 -10 -17 -14 22 -12 116 4 185 14 59 22 69 89 120 l27 20 -34 38 -33 39 -42 -49z m59 -22 c0 -4 -16 -23 -36 -42 -19 -19 -39 -43 -44 -54 -6 -13 -9 -15 -9 -5 -1 18 65 110 79 110 6 0 10 -4 10 -9z m-100 -185 c-6 -31 -14 -56 -17 -56 -6 0 7 101 14 113 12 21 14 -6 3 -57z m-13 -118 c-2 -13 -4 -5 -4 17 -1 22 1 32 4 23 2 -10 2 -28 0 -40z"/> <path d="M1129 598 c16 -29 35 -73 41 -97 15 -57 23 -47 14 18 -4 33 -17 66 -35 91 -42 57 -54 49 -20 -12z"/> <path d="M1711 578 c-1 -50 -13 -60 -41 -35 -8 6 -1 -4 16 -24 16 -20 35 -44 41 -55 10 -14 10 -10 0 16 -8 20 -10 50 -7 71 4 20 3 44 -1 55 -5 13 -8 3 -8 -28z"/> <path d="M1757 590 c3 -10 11 -24 19 -31 10 -8 10 -3 -2 20 -18 35 -24 40 -17 11z"/> <path d="M1230 545 c14 -8 32 -14 40 -14 9 0 4 6 -10 14 -14 8 -32 14 -40 14 -9 0 -4 -6 10 -14z"/> <path d="M1817 520 c3 -25 7 -47 9 -49 8 -9 2 55 -6 74 -6 13 -7 5 -3 -25z"/> <path d="M1621 525 c-1 -5 4 -27 10 -48 13 -50 19 -88 25 -172 5 -68 1 -90 -52 -285 -15 -56 18 0 42 71 34 99 41 194 21 289 -15 72 -45 165 -46 145z"/> <path d="M1963 505 c9 -16 23 -39 32 -50 9 -11 7 -2 -6 20 -27 49 -47 72 -26 30z"/> <path d="M1212 467 c-9 -11 -6 -21 14 -48 l26 -34 -7 35 c-11 53 -19 64 -33 47z"/> <path d="M1595 453 c8 -16 17 -37 20 -47 3 -10 8 -17 11 -14 7 8 -26 88 -37 88 -4 0 -2 -12 6 -27z"/> <path d="M1135 440 c2 -14 5 -45 5 -69 0 -51 11 -45 28 15 14 50 15 79 1 44 l-11 -25 -14 30 c-12 26 -14 27 -9 5z"/> <path d="M1833 420 c0 -25 2 -35 4 -22 2 12 2 32 0 45 -2 12 -4 2 -4 -23z"/> <path d="M1011 413 c-23 -18 -29 -28 -20 -33 7 -5 21 3 37 21 32 39 25 44 -17 12z"/> <path d="M1926 403 c4 -20 7 -119 8 -220 1 -167 3 -183 19 -183 11 0 17 8 17 21 0 15 5 19 19 14 55 -17 36 242 -26 357 -31 57 -47 62 -37 11z"/> <path d="M1396 408 c-3 -13 -5 -32 -5 -43 1 -11 5 -2 10 19 10 42 6 62 -5 24z"/> <path d="M945 390 c-23 -24 -29 -40 -32 -87 -2 -39 0 -52 6 -38 7 17 10 14 21 -25 21 -78 40 -174 40 -207 0 -31 2 -33 38 -33 l39 0 -54 158 c-29 86 -53 166 -53 177 0 11 7 33 15 49 21 39 14 42 -20 6z"/> <path d="M1622 345 c-1 -22 -9 -69 -17 -104 -9 -35 -14 -66 -11 -68 9 -9 37 137 33 173 l-4 39 -1 -40z"/> <path d="M1038 353 c-20 -22 -43 -81 -35 -89 3 -3 8 8 12 25 11 49 21 44 34 -14 7 -30 17 -55 23 -55 6 0 7 7 3 18 -4 9 -10 43 -14 76 -6 56 -7 58 -23 39z"/> <path d="M1477 303 c-9 -88 -41 -233 -62 -274 -15 -27 -14 -29 3 -29 12 0 25 14 37 40 21 46 35 44 35 -6 0 -24 5 -34 15 -34 23 0 20 256 -4 325 l-18 50 -6 -72z"/> <path d="M1760 321 c0 -64 -23 -171 -54 -255 -20 -53 -22 -66 -11 -66 8 0 15 8 15 18 0 9 7 30 15 46 8 16 24 74 36 130 11 55 23 103 25 106 3 2 9 -2 14 -10 9 -13 10 -13 10 0 0 16 -36 80 -45 80 -3 0 -5 -22 -5 -49z"/> <path d="M1224 304 c4 -33 7 -72 7 -87 0 -24 2 -27 14 -17 16 14 20 36 6 42 -4 2 -11 21 -15 43 -7 38 -7 39 10 23 12 -12 18 -36 20 -75 5 -119 9 -163 15 -163 12 0 19 115 11 166 -9 55 -39 115 -61 122 -11 4 -12 -7 -7 -54z"/> <path d="M1326 212 c-3 -31 -7 -93 -10 -137 -7 -106 9 -46 18 70 4 47 9 92 12 99 3 8 1 17 -4 20 -6 3 -12 -18 -16 -52z"/> <path d="M1883 174 c-13 -27 -33 -65 -45 -84 -34 -54 -49 -83 -44 -87 14 -14 120 176 114 204 -2 9 -13 -6 -25 -33z"/> <path d="M1061 204 c-2 -21 29 -110 49 -139 19 -28 20 -29 20 -7 0 13 -4 21 -9 18 -5 -4 -21 27 -34 66 -14 40 -26 68 -26 62z"/> <path d="M1164 139 c3 -34 6 -79 6 -100 0 -35 2 -39 26 -39 l27 0 -5 74 c-3 46 -11 85 -22 100 -29 44 -40 32 -32 -35z"/> </g> </svg> 